<svg xmlns="http://www.w3.org/2000/svg" width="600" height="600" viewBox="0 0 600 600">
  <rect x="0" y="0" width="600" height="600" rx="70" fill="#0f1923"/>
  <rect x="53" y="53" width="44" height="44" fill="#0d1e2e"/>
<rect x="53" y="97" width="44" height="6" fill="#1c3a4a"/>
<rect x="103" y="53" width="44" height="44" fill="#0d1e2e"/>
<rect x="103" y="97" width="44" height="6" fill="#1c3a4a"/>
<rect x="153" y="53" width="44" height="44" fill="#0d1e2e"/>
<rect x="197" y="53" width="6" height="44" fill="#1c3a4a"/>
<rect x="203" y="53" width="44" height="44" fill="#0d1e2e"/>
<rect x="247" y="53" width="6" height="44" fill="#1c3a4a"/>
<rect x="253" y="53" width="44" height="44" fill="#0d1e2e"/>
<rect x="303" y="53" width="44" height="44" fill="#0d1e2e"/>
<rect x="303" y="97" width="44" height="6" fill="#1c3a4a"/>
<rect x="353" y="53" width="44" height="44" fill="#0d1e2e"/>
<rect x="403" y="53" width="44" height="44" fill="#0d1e2e"/>
<rect x="403" y="97" width="44" height="6" fill="#1c3a4a"/>
<rect x="453" y="53" width="44" height="44" fill="#0d1e2e"/>
<rect x="453" y="97" width="44" height="6" fill="#1c3a4a"/>
<rect x="503" y="53" width="44" height="44" fill="#0d1e2e"/>
<rect x="53" y="103" width="44" height="44" fill="#0d1e2e"/>
<rect x="103" y="103" width="44" height="44" fill="#0d1e2e"/>
<rect x="103" y="147" width="44" height="6" fill="#1c3a4a"/>
<rect x="147" y="103" width="6" height="44" fill="#1c3a4a"/>
<rect x="153" y="103" width="44" height="44" fill="#0d1e2e"/>
<rect x="197" y="103" width="6" height="44" fill="#1c3a4a"/>
<rect x="203" y="103" width="44" height="44" fill="#0d1e2e"/>
<rect x="203" y="147" width="44" height="6" fill="#1c3a4a"/>
<rect x="253" y="103" width="44" height="44" fill="#0d1e2e"/>
<rect x="253" y="147" width="44" height="6" fill="#1c3a4a"/>
<rect x="303" y="103" width="44" height="44" fill="#0d1e2e"/>
<rect x="303" y="147" width="44" height="6" fill="#1c3a4a"/>
<rect x="347" y="103" width="6" height="44" fill="#1c3a4a"/>
<rect x="353" y="103" width="44" height="44" fill="#0d1e2e"/>
<rect x="353" y="147" width="44" height="6" fill="#1c3a4a"/>
<rect x="403" y="103" width="44" height="44" fill="#0d1e2e"/>
<rect x="447" y="103" width="6" height="44" fill="#1c3a4a"/>
<rect x="453" y="103" width="44" height="44" fill="#0d1e2e"/>
<rect x="453" y="147" width="44" height="6" fill="#1c3a4a"/>
<rect x="503" y="103" width="44" height="44" fill="#0d1e2e"/>
<rect x="53" y="153" width="44" height="44" fill="#0d1e2e"/>
<rect x="103" y="153" width="44" height="44" fill="#0d1e2e"/>
<rect x="103" y="197" width="44" height="6" fill="#1c3a4a"/>
<rect x="153" y="153" width="44" height="44" fill="#0d1e2e"/>
<rect x="153" y="197" width="44" height="6" fill="#1c3a4a"/>
<rect x="197" y="153" width="6" height="44" fill="#1c3a4a"/>
<rect x="203" y="153" width="44" height="44" fill="#0d1e2e"/>
<rect x="253" y="153" width="44" height="44" fill="#0d1e2e"/>
<rect x="253" y="197" width="44" height="6" fill="#1c3a4a"/>
<rect x="303" y="153" width="44" height="44" fill="#0d1e2e"/>
<rect x="303" y="197" width="44" height="6" fill="#1c3a4a"/>
<rect x="353" y="153" width="44" height="44" fill="#0d1e2e"/>
<rect x="397" y="153" width="6" height="44" fill="#1c3a4a"/>
<rect x="403" y="153" width="44" height="44" fill="#0d1e2e"/>
<rect x="453" y="153" width="44" height="44" fill="#0d1e2e"/>
<rect x="497" y="153" width="6" height="44" fill="#1c3a4a"/>
<rect x="503" y="153" width="44" height="44" fill="#0d1e2e"/>
<rect x="503" y="197" width="44" height="6" fill="#1c3a4a"/>
<rect x="53" y="203" width="44" height="44" fill="#0d1e2e"/>
<rect x="97" y="203" width="6" height="44" fill="#1c3a4a"/>
<rect x="103" y="203" width="44" height="44" fill="#0d1e2e"/>
<rect x="153" y="203" width="44" height="44" fill="#0d1e2e"/>
<rect x="197" y="203" width="6" height="44" fill="#1c3a4a"/>
<rect x="203" y="203" width="44" height="44" fill="#0d1e2e"/>
<rect x="247" y="203" width="6" height="44" fill="#1c3a4a"/>
<rect x="253" y="203" width="44" height="44" fill="#0d1e2e"/>
<rect x="303" y="203" width="44" height="44" fill="#0d1e2e"/>
<rect x="303" y="247" width="44" height="6" fill="#1c3a4a"/>
<rect x="353" y="203" width="44" height="44" fill="#0d1e2e"/>
<rect x="353" y="247" width="44" height="6" fill="#1c3a4a"/>
<rect x="397" y="203" width="6" height="44" fill="#1c3a4a"/>
<rect x="403" y="203" width="44" height="44" fill="#0d1e2e"/>
<rect x="447" y="203" width="6" height="44" fill="#1c3a4a"/>
<rect x="453" y="203" width="44" height="44" fill="#0d1e2e"/>
<rect x="453" y="247" width="44" height="6" fill="#1c3a4a"/>
<rect x="503" y="203" width="44" height="44" fill="#0d1e2e"/>
<rect x="53" y="253" width="44" height="44" fill="#0d1e2e"/>
<rect x="97" y="253" width="6" height="44" fill="#1c3a4a"/>
<rect x="103" y="253" width="44" height="44" fill="#0d1e2e"/>
<rect x="147" y="253" width="6" height="44" fill="#1c3a4a"/>
<rect x="153" y="253" width="44" height="44" fill="#0d1e2e"/>
<rect x="153" y="297" width="44" height="6" fill="#1c3a4a"/>
<rect x="203" y="253" width="44" height="44" fill="#0d1e2e"/>
<rect x="203" y="297" width="44" height="6" fill="#1c3a4a"/>
<rect x="247" y="253" width="6" height="44" fill="#1c3a4a"/>
<rect x="253" y="253" width="44" height="44" fill="#0d1e2e"/>
<rect x="297" y="253" width="6" height="44" fill="#1c3a4a"/>
<rect x="303" y="253" width="44" height="44" fill="#0d1e2e"/>
<rect x="353" y="253" width="44" height="44" fill="#0d1e2e"/>
<rect x="397" y="253" width="6" height="44" fill="#1c3a4a"/>
<rect x="403" y="253" width="44" height="44" fill="#0d1e2e"/>
<rect x="403" y="297" width="44" height="6" fill="#1c3a4a"/>
<rect x="453" y="253" width="44" height="44" fill="#0d1e2e"/>
<rect x="453" y="297" width="44" height="6" fill="#1c3a4a"/>
<rect x="497" y="253" width="6" height="44" fill="#1c3a4a"/>
<rect x="503" y="253" width="44" height="44" fill="#0d1e2e"/>
<rect x="53" y="303" width="44" height="44" fill="#0d1e2e"/>
<rect x="97" y="303" width="6" height="44" fill="#1c3a4a"/>
<rect x="103" y="303" width="44" height="44" fill="#0d1e2e"/>
<rect x="153" y="303" width="44" height="44" fill="#0d1e2e"/>
<rect x="197" y="303" width="6" height="44" fill="#1c3a4a"/>
<rect x="203" y="303" width="44" height="44" fill="#0d1e2e"/>
<rect x="203" y="347" width="44" height="6" fill="#1c3a4a"/>
<rect x="253" y="303" width="44" height="44" fill="#0d1e2e"/>
<rect x="253" y="347" width="44" height="6" fill="#1c3a4a"/>
<rect x="303" y="303" width="44" height="44" fill="#0d1e2e"/>
<rect x="303" y="347" width="44" height="6" fill="#1c3a4a"/>
<rect x="347" y="303" width="6" height="44" fill="#1c3a4a"/>
<rect x="353" y="303" width="44" height="44" fill="#0d1e2e"/>
<rect x="353" y="347" width="44" height="6" fill="#1c3a4a"/>
<rect x="403" y="303" width="44" height="44" fill="#0d1e2e"/>
<rect x="403" y="347" width="44" height="6" fill="#1c3a4a"/>
<rect x="453" y="303" width="44" height="44" fill="#0d1e2e"/>
<rect x="497" y="303" width="6" height="44" fill="#1c3a4a"/>
<rect x="503" y="303" width="44" height="44" fill="#0d1e2e"/>
<rect x="53" y="353" width="44" height="44" fill="#0d1e2e"/>
<rect x="97" y="353" width="6" height="44" fill="#1c3a4a"/>
<rect x="103" y="353" width="44" height="44" fill="#0d1e2e"/>
<rect x="147" y="353" width="6" height="44" fill="#1c3a4a"/>
<rect x="153" y="353" width="44" height="44" fill="#0d1e2e"/>
<rect x="197" y="353" width="6" height="44" fill="#1c3a4a"/>
<rect x="203" y="353" width="44" height="44" fill="#0d1e2e"/>
<rect x="253" y="353" width="44" height="44" fill="#0d1e2e"/>
<rect x="297" y="353" width="6" height="44" fill="#1c3a4a"/>
<rect x="303" y="353" width="44" height="44" fill="#0d1e2e"/>
<rect x="353" y="353" width="44" height="44" fill="#0d1e2e"/>
<rect x="353" y="397" width="44" height="6" fill="#1c3a4a"/>
<rect x="397" y="353" width="6" height="44" fill="#1c3a4a"/>
<rect x="403" y="353" width="44" height="44" fill="#0d1e2e"/>
<rect x="453" y="353" width="44" height="44" fill="#0d1e2e"/>
<rect x="453" y="397" width="44" height="6" fill="#1c3a4a"/>
<rect x="497" y="353" width="6" height="44" fill="#1c3a4a"/>
<rect x="503" y="353" width="44" height="44" fill="#0d1e2e"/>
<rect x="53" y="403" width="44" height="44" fill="#0d1e2e"/>
<rect x="97" y="403" width="6" height="44" fill="#1c3a4a"/>
<rect x="103" y="403" width="44" height="44" fill="#0d1e2e"/>
<rect x="103" y="447" width="44" height="6" fill="#1c3a4a"/>
<rect x="147" y="403" width="6" height="44" fill="#1c3a4a"/>
<rect x="153" y="403" width="44" height="44" fill="#0d1e2e"/>
<rect x="203" y="403" width="44" height="44" fill="#0d1e2e"/>
<rect x="203" y="447" width="44" height="6" fill="#1c3a4a"/>
<rect x="247" y="403" width="6" height="44" fill="#1c3a4a"/>
<rect x="253" y="403" width="44" height="44" fill="#0d1e2e"/>
<rect x="297" y="403" width="6" height="44" fill="#1c3a4a"/>
<rect x="303" y="403" width="44" height="44" fill="#0d1e2e"/>
<rect x="347" y="403" width="6" height="44" fill="#1c3a4a"/>
<rect x="353" y="403" width="44" height="44" fill="#0d1e2e"/>
<rect x="403" y="403" width="44" height="44" fill="#0d1e2e"/>
<rect x="403" y="447" width="44" height="6" fill="#1c3a4a"/>
<rect x="447" y="403" width="6" height="44" fill="#1c3a4a"/>
<rect x="453" y="403" width="44" height="44" fill="#0d1e2e"/>
<rect x="453" y="447" width="44" height="6" fill="#1c3a4a"/>
<rect x="503" y="403" width="44" height="44" fill="#0d1e2e"/>
<rect x="53" y="453" width="44" height="44" fill="#0d1e2e"/>
<rect x="53" y="497" width="44" height="6" fill="#1c3a4a"/>
<rect x="103" y="453" width="44" height="44" fill="#0d1e2e"/>
<rect x="147" y="453" width="6" height="44" fill="#1c3a4a"/>
<rect x="153" y="453" width="44" height="44" fill="#0d1e2e"/>
<rect x="153" y="497" width="44" height="6" fill="#1c3a4a"/>
<rect x="203" y="453" width="44" height="44" fill="#0d1e2e"/>
<rect x="203" y="497" width="44" height="6" fill="#1c3a4a"/>
<rect x="247" y="453" width="6" height="44" fill="#1c3a4a"/>
<rect x="253" y="453" width="44" height="44" fill="#0d1e2e"/>
<rect x="297" y="453" width="6" height="44" fill="#1c3a4a"/>
<rect x="303" y="453" width="44" height="44" fill="#0d1e2e"/>
<rect x="347" y="453" width="6" height="44" fill="#1c3a4a"/>
<rect x="353" y="453" width="44" height="44" fill="#0d1e2e"/>
<rect x="397" y="453" width="6" height="44" fill="#1c3a4a"/>
<rect x="403" y="453" width="44" height="44" fill="#0d1e2e"/>
<rect x="453" y="453" width="44" height="44" fill="#0d1e2e"/>
<rect x="453" y="497" width="44" height="6" fill="#1c3a4a"/>
<rect x="503" y="453" width="44" height="44" fill="#0d1e2e"/>
<rect x="53" y="503" width="44" height="44" fill="#0d1e2e"/>
<rect x="103" y="503" width="44" height="44" fill="#0d1e2e"/>
<rect x="153" y="503" width="44" height="44" fill="#0d1e2e"/>
<rect x="203" y="503" width="44" height="44" fill="#0d1e2e"/>
<rect x="253" y="503" width="44" height="44" fill="#0d1e2e"/>
<rect x="297" y="503" width="6" height="44" fill="#1c3a4a"/>
<rect x="303" y="503" width="44" height="44" fill="#0d1e2e"/>
<rect x="353" y="503" width="44" height="44" fill="#0d1e2e"/>
<rect x="403" y="503" width="44" height="44" fill="#0d1e2e"/>
<rect x="447" y="503" width="6" height="44" fill="#1c3a4a"/>
<rect x="453" y="503" width="44" height="44" fill="#0d1e2e"/>
<rect x="503" y="503" width="44" height="44" fill="#0d1e2e"/>

  <rect x="51.5" y="51.5" width="497" height="497" fill="none" stroke="#22d4c0" stroke-width="3"/>
  <rect x="49" y="53" width="5" height="44" fill="#0f1923"/>
  <rect x="546" y="503" width="5" height="44" fill="#0f1923"/>
  <circle cx="75" cy="75" r="12" fill="rgba(34,212,192,0.2)"/>
  <circle cx="75" cy="75" r="8" fill="#22d4c0"/>
  <circle cx="75" cy="75" r="3.5" fill="#d0fff8"/>
  <rect x="512" y="512" width="26" height="26" rx="4" fill="#f5c234"/>
  <rect x="517" y="514" width="3" height="18" fill="#0f1923"/>
  <polygon points="520,515 532,520 520,526" fill="#0f1923"/>
</svg>
